<?xml version="1.0" encoding="utf-8"?>
<!-- Generator: Adobe Illustrator 25.0.0, SVG Export Plug-In . SVG Version: 6.00 Build 0)  -->
<svg version="1.1" id="Layer_1" xmlns="http://www.w3.org/2000/svg" xmlns:xlink="http://www.w3.org/1999/xlink" x="0px" y="0px"
	 viewBox="0 0 350 350" style="enable-background:new 0 0 350 350;" xml:space="preserve">
<style type="text/css">
	.st0{fill:#003A63;}
	.st1{fill:#008EE3;}
	.st2{fill:#191B1F;}
	.st3{fill:#FFFFFF;}
</style>
<rect x="-22.6" y="-16" class="st0" width="392.8" height="389.2"/>
<polygon class="st1" points="284.9,270.5 174.3,270.5 63.6,270.5 174.3,85 "/>
<circle class="st2" cx="174" cy="85.9" r="11.9"/>
<circle class="st2" cx="64.4" cy="270.2" r="11.9"/>
<circle class="st2" cx="283.8" cy="270.2" r="11.9"/>
<circle class="st2" cx="145.2" cy="132" r="11.9"/>
<circle class="st2" cx="203.3" cy="132" r="11.9"/>
<circle class="st2" cx="119.1" cy="177.5" r="11.9"/>
<circle class="st2" cx="230.9" cy="177.5" r="11.9"/>
<circle class="st2" cx="93" cy="224.5" r="11.9"/>
<circle class="st2" cx="255.5" cy="224.5" r="11.9"/>
<circle class="st2" cx="174" cy="217.7" r="11.9"/>
<circle class="st2" cx="119.1" cy="270.2" r="11.9"/>
<circle class="st2" cx="174" cy="270.2" r="11.9"/>
<circle class="st2" cx="230.9" cy="270.2" r="11.9"/>
<g>
	<rect x="157" y="31.7" class="st3" width="33.8" height="33.8"/>
	<g>
		<path d="M171.6,51l-1.8,5.3h-2.3l5.8-16.9h2.6l5.8,16.9h-2.3l-1.8-5.3C177.6,51,171.6,51,171.6,51z M177.1,49.3l-1.7-4.9
			c-0.4-1.1-0.6-2.1-0.9-3.1h-0.1c-0.3,1-0.5,2-0.9,3.1l-1.7,4.9H177.1z"/>
	</g>
</g>
<g>
	<rect x="301.7" y="287" class="st3" width="33.8" height="33.8"/>
	<g>
		<path d="M314.4,295c1-0.2,2.5-0.4,4-0.4c2.2,0,3.6,0.4,4.6,1.2c0.9,0.7,1.4,1.7,1.4,3c0,1.7-1.1,3.1-2.9,3.7v0.1
			c1.6,0.4,3.5,1.7,3.5,4.2c0,1.5-0.6,2.6-1.5,3.4c-1.2,1.1-3.1,1.6-5.8,1.6c-1.5,0-2.7-0.1-3.4-0.2L314.4,295L314.4,295z
			 M316.6,301.9h2c2.3,0,3.6-1.2,3.6-2.9c0-2-1.5-2.8-3.7-2.8c-1,0-1.6,0.1-1.9,0.2C316.6,296.4,316.6,301.9,316.6,301.9z
			 M316.6,310c0.5,0.1,1.1,0.1,1.8,0.1c2.3,0,4.3-0.8,4.3-3.3c0-2.3-2-3.3-4.4-3.3h-1.8v6.5L316.6,310L316.6,310z"/>
	</g>
</g>
<g>
	<rect x="16" y="286.5" class="st3" width="33.8" height="33.8"/>
	<g>
		<path d="M40,310.7c-0.8,0.4-2.4,0.8-4.5,0.8c-4.8,0-8.3-3-8.3-8.6c0-5.3,3.6-8.9,8.8-8.9c2.1,0,3.4,0.5,4,0.8l-0.6,1.8
			c-0.8-0.4-2-0.7-3.4-0.7c-4,0-6.6,2.5-6.6,7c0,4.2,2.4,6.8,6.5,6.8c1.4,0,2.7-0.3,3.6-0.7L40,310.7z"/>
	</g>
</g>
<g>
	<rect x="157" y="165.8" class="st3" width="33.8" height="33.8"/>
	<g>
		<path d="M168.2,173.8c1.3-0.2,2.9-0.4,4.6-0.4c3.1,0,5.4,0.8,6.8,2.1c1.5,1.4,2.4,3.3,2.4,6.1s-0.9,5-2.4,6.6
			c-1.6,1.6-4.2,2.4-7.5,2.4c-1.6,0-2.9-0.1-4-0.2L168.2,173.8L168.2,173.8z M170.3,188.7c0.6,0.1,1.4,0.1,2.2,0.1
			c4.7,0,7.2-2.6,7.2-7.2c0-4-2.2-6.5-6.8-6.5c-1.1,0-2,0.1-2.6,0.2L170.3,188.7L170.3,188.7z"/>
	</g>
</g>
<g>
	<path class="st3" d="M169.8,87.5l-0.6,2.1h-1.9l2.5-8.1h2.4l2.5,8.1h-2l-0.6-2.1H169.8z M171.8,86.2l-0.5-1.7
		c-0.1-0.5-0.3-1.1-0.4-1.6h0c-0.1,0.5-0.2,1.1-0.4,1.6l-0.5,1.7H171.8z"/>
	<path class="st3" d="M177.8,83.4L177.8,83.4l-1.5,0.7l-0.3-1.4l2.1-1h1.5v7.8h-1.8V83.4z"/>
</g>
<g>
	<path class="st3" d="M198.9,133.1l-0.6,2.1h-1.9l2.5-8.1h2.4l2.5,8.1h-2l-0.6-2.1H198.9z M201,131.7l-0.5-1.7
		c-0.1-0.5-0.3-1.1-0.4-1.6h0c-0.1,0.5-0.2,1.1-0.4,1.6l-0.5,1.7H201z"/>
	<path class="st3" d="M204.7,135.2v-1.1l1-0.9c1.7-1.5,2.5-2.4,2.6-3.3c0-0.6-0.4-1.1-1.3-1.1c-0.7,0-1.3,0.3-1.7,0.6l-0.5-1.3
		c0.6-0.4,1.5-0.8,2.5-0.8c1.8,0,2.7,1,2.7,2.4c0,1.3-0.9,2.4-2.1,3.4l-0.7,0.6v0h3v1.5H204.7z"/>
</g>
<g>
	<path class="st3" d="M226.2,179.1l-0.6,2.1h-1.9l2.5-8.1h2.4l2.5,8.1h-2l-0.6-2.1H226.2z M228.3,177.8l-0.5-1.7
		c-0.1-0.5-0.3-1.1-0.4-1.6h0c-0.1,0.5-0.2,1.1-0.4,1.6l-0.5,1.7H228.3z"/>
	<path class="st3" d="M232,181.2v-1.1l1-0.9c1.7-1.5,2.5-2.4,2.6-3.3c0-0.6-0.4-1.1-1.3-1.1c-0.7,0-1.3,0.3-1.7,0.6l-0.5-1.3
		c0.6-0.4,1.5-0.8,2.5-0.8c1.8,0,2.7,1,2.7,2.4c0,1.3-0.9,2.4-2.1,3.4l-0.7,0.6v0h3v1.5H232z"/>
</g>
<g>
	<path class="st3" d="M251.1,226l-0.6,2.1h-1.9l2.5-8.1h2.4l2.5,8.1h-2l-0.6-2.1H251.1z M253.2,224.7l-0.5-1.7
		c-0.1-0.5-0.3-1.1-0.4-1.6h0c-0.1,0.5-0.2,1.1-0.4,1.6l-0.5,1.7H253.2z"/>
	<path class="st3" d="M257.1,226.3c0.3,0.2,1.1,0.5,1.8,0.5c0.9,0,1.4-0.5,1.4-1c0-0.8-0.8-1.1-1.6-1.1h-0.7v-1.3h0.7
		c0.6,0,1.4-0.2,1.4-0.9c0-0.5-0.4-0.8-1.2-0.8c-0.6,0-1.3,0.3-1.6,0.5l-0.4-1.3c0.5-0.3,1.4-0.6,2.4-0.6c1.7,0,2.6,0.9,2.6,1.9
		c0,0.8-0.5,1.5-1.4,1.8v0c0.9,0.2,1.7,0.9,1.7,1.9c0,1.4-1.2,2.4-3.2,2.4c-1,0-1.9-0.3-2.3-0.5L257.1,226.3z"/>
</g>
<g>
	<path class="st3" d="M277.5,265.7c0.5-0.1,1.4-0.2,2.4-0.2c1.1,0,1.8,0.1,2.4,0.5c0.6,0.3,1,0.9,1,1.6c0,0.7-0.4,1.4-1.3,1.7v0
		c0.9,0.2,1.6,0.9,1.6,2c0,0.7-0.3,1.3-0.8,1.7c-0.6,0.5-1.6,0.7-3.2,0.7c-0.9,0-1.6-0.1-2-0.1V265.7z M279.3,268.8h0.6
		c1,0,1.5-0.4,1.5-1c0-0.6-0.5-0.9-1.3-0.9c-0.4,0-0.6,0-0.8,0V268.8z M279.3,272.4c0.2,0,0.4,0,0.7,0c0.8,0,1.6-0.3,1.6-1.2
		c0-0.8-0.7-1.1-1.6-1.1h-0.6V272.4z"/>
	<path class="st3" d="M286.8,267.5L286.8,267.5l-1.5,0.7l-0.3-1.4l2.1-1h1.5v7.8h-1.8V267.5z"/>
</g>
<g>
	<path class="st3" d="M225.1,265.7c0.5-0.1,1.4-0.2,2.4-0.2c1.1,0,1.8,0.1,2.4,0.5c0.6,0.3,1,0.9,1,1.6c0,0.7-0.4,1.4-1.3,1.7v0
		c0.9,0.2,1.6,0.9,1.6,2c0,0.7-0.3,1.3-0.8,1.7c-0.6,0.5-1.6,0.7-3.2,0.7c-0.9,0-1.6-0.1-2-0.1V265.7z M226.9,268.8h0.6
		c1,0,1.5-0.4,1.5-1c0-0.6-0.5-0.9-1.3-0.9c-0.4,0-0.6,0-0.8,0V268.8z M226.9,272.4c0.2,0,0.4,0,0.7,0c0.8,0,1.6-0.3,1.6-1.2
		c0-0.8-0.7-1.1-1.6-1.1h-0.6V272.4z"/>
	<path class="st3" d="M232.1,273.7v-1.1l1-0.9c1.7-1.5,2.5-2.4,2.6-3.3c0-0.6-0.4-1.1-1.3-1.1c-0.7,0-1.3,0.3-1.7,0.6l-0.5-1.3
		c0.6-0.4,1.5-0.8,2.5-0.8c1.8,0,2.7,1,2.7,2.4c0,1.3-0.9,2.4-2.1,3.4l-0.7,0.6v0h3v1.5H232.1z"/>
</g>
<g>
	<path class="st3" d="M167.6,266.4c0.5-0.1,1.4-0.2,2.4-0.2c1.1,0,1.8,0.1,2.4,0.5c0.6,0.3,1,0.9,1,1.6c0,0.7-0.4,1.4-1.3,1.7v0
		c0.9,0.2,1.6,0.9,1.6,2c0,0.7-0.3,1.3-0.8,1.7c-0.6,0.5-1.6,0.7-3.2,0.7c-0.9,0-1.6-0.1-2-0.1V266.4z M169.5,269.4h0.6
		c1,0,1.5-0.4,1.5-1c0-0.6-0.5-0.9-1.3-0.9c-0.4,0-0.6,0-0.8,0V269.4z M169.5,273c0.2,0,0.4,0,0.7,0c0.8,0,1.6-0.3,1.6-1.2
		c0-0.8-0.7-1.1-1.6-1.1h-0.6V273z"/>
	<path class="st3" d="M174.9,272.5c0.3,0.2,1.1,0.5,1.8,0.5c0.9,0,1.4-0.5,1.4-1c0-0.8-0.8-1.1-1.6-1.1h-0.7v-1.3h0.7
		c0.6,0,1.4-0.2,1.4-0.9c0-0.5-0.4-0.8-1.2-0.8c-0.6,0-1.3,0.3-1.6,0.5l-0.4-1.3c0.5-0.3,1.4-0.6,2.4-0.6c1.7,0,2.6,0.9,2.6,1.9
		c0,0.8-0.5,1.5-1.4,1.8v0c0.9,0.2,1.7,0.9,1.7,1.9c0,1.4-1.2,2.4-3.2,2.4c-1,0-1.9-0.3-2.3-0.5L174.9,272.5z"/>
</g>
<g>
	<path class="st3" d="M113.7,266.1c0.5-0.1,1.4-0.2,2.4-0.2c1.1,0,1.8,0.1,2.4,0.5c0.6,0.3,1,0.9,1,1.6c0,0.7-0.4,1.4-1.3,1.7v0
		c0.9,0.2,1.6,0.9,1.6,2c0,0.7-0.3,1.3-0.8,1.7c-0.6,0.5-1.6,0.7-3.2,0.7c-0.9,0-1.6-0.1-2-0.1V266.1z M115.5,269.2h0.6
		c1,0,1.5-0.4,1.5-1c0-0.6-0.5-0.9-1.3-0.9c-0.4,0-0.6,0-0.8,0V269.2z M115.5,272.8c0.2,0,0.4,0,0.7,0c0.8,0,1.6-0.3,1.6-1.2
		c0-0.8-0.7-1.1-1.6-1.1h-0.6V272.8z"/>
	<path class="st3" d="M123.9,274.1v-1.9h-3.5v-1.2l2.9-4.8h2.2v4.6h0.9v1.4h-0.9v1.9H123.9z M123.9,270.9v-1.7c0-0.5,0-0.9,0-1.5h0
		c-0.3,0.5-0.5,1-0.7,1.5l-1,1.7l0,0H123.9z"/>
</g>
<g>
	<path class="st3" d="M64.6,273.5c-0.3,0.2-1.1,0.3-2.1,0.3c-2.8,0-4.2-1.8-4.2-4.1c0-2.8,2-4.3,4.4-4.3c0.9,0,1.7,0.2,2,0.4
		l-0.4,1.4c-0.4-0.2-0.9-0.3-1.5-0.3c-1.4,0-2.6,0.9-2.6,2.7c0,1.6,1,2.6,2.6,2.6c0.6,0,1.2-0.1,1.5-0.3L64.6,273.5z"/>
	<path class="st3" d="M67.9,267.5L67.9,267.5l-1.5,0.7l-0.3-1.4l2.1-1h1.5v7.8h-1.8V267.5z"/>
</g>
<g>
	<path class="st3" d="M92.8,227.4c-0.3,0.2-1.1,0.3-2.1,0.3c-2.8,0-4.2-1.8-4.2-4.1c0-2.8,2-4.3,4.4-4.3c0.9,0,1.7,0.2,2,0.4
		l-0.4,1.4c-0.4-0.2-0.9-0.3-1.5-0.3c-1.4,0-2.6,0.9-2.6,2.7c0,1.6,1,2.6,2.6,2.6c0.6,0,1.2-0.1,1.5-0.3L92.8,227.4z"/>
	<path class="st3" d="M93.8,227.7v-1.1l1-0.9c1.7-1.5,2.5-2.4,2.6-3.3c0-0.6-0.4-1.1-1.3-1.1c-0.7,0-1.3,0.3-1.7,0.6l-0.5-1.3
		c0.6-0.4,1.5-0.8,2.5-0.8c1.8,0,2.7,1,2.7,2.4c0,1.3-0.9,2.4-2.1,3.4l-0.7,0.6v0h3v1.5H93.8z"/>
</g>
<g>
	<path class="st3" d="M119,180.8c-0.3,0.2-1.1,0.3-2.1,0.3c-2.8,0-4.2-1.8-4.2-4.1c0-2.8,2-4.3,4.4-4.3c0.9,0,1.7,0.2,2,0.4
		l-0.4,1.4c-0.4-0.2-0.9-0.3-1.5-0.3c-1.4,0-2.6,0.9-2.6,2.7c0,1.6,1,2.6,2.6,2.6c0.6,0,1.2-0.1,1.5-0.3L119,180.8z"/>
	<path class="st3" d="M120.3,179.2c0.3,0.2,1.1,0.5,1.8,0.5c0.9,0,1.4-0.5,1.4-1c0-0.8-0.8-1.1-1.6-1.1h-0.7v-1.3h0.7
		c0.6,0,1.4-0.2,1.4-0.9c0-0.5-0.4-0.8-1.2-0.8c-0.6,0-1.3,0.3-1.6,0.5l-0.4-1.3c0.5-0.3,1.4-0.6,2.4-0.6c1.7,0,2.6,0.9,2.6,1.9
		c0,0.8-0.5,1.5-1.4,1.8v0c0.9,0.2,1.7,0.9,1.7,1.9c0,1.4-1.2,2.4-3.2,2.4c-1,0-1.9-0.3-2.3-0.5L120.3,179.2z"/>
</g>
<g>
	<path class="st3" d="M144.6,135c-0.3,0.2-1.1,0.3-2.1,0.3c-2.8,0-4.2-1.8-4.2-4.1c0-2.8,2-4.3,4.4-4.3c0.9,0,1.7,0.2,2,0.4
		l-0.4,1.4c-0.4-0.2-0.9-0.3-1.5-0.3c-1.4,0-2.6,0.9-2.6,2.7c0,1.6,1,2.6,2.6,2.6c0.6,0,1.2-0.1,1.5-0.3L144.6,135z"/>
	<path class="st3" d="M148.7,135.2v-1.9h-3.5v-1.2l2.9-4.7h2.2v4.6h0.9v1.4h-0.9v1.9H148.7z M148.7,131.9v-1.7c0-0.5,0-0.9,0-1.5h0
		c-0.3,0.5-0.5,1-0.7,1.5l-1,1.7l0,0H148.7z"/>
</g>
</svg>
